<svg xmlns="http://www.w3.org/2000/svg" width="770.779" height="601.634" viewBox="0 0 770.779 601.634"><defs><style>.a{fill:#fff;}.b{fill:#454220;}.c{fill:#dcae86;}.d{fill:#d7df23;}.e{fill:#ff6819;}</style></defs><g transform="translate(-256 -640)"><path class="a" d="M431.9,0,414.81,21.854l10.377,25.722,27.471,3.886,17.094-21.854L459.375,3.877Z" transform="translate(215.174 640)"/><path class="b" d="M89.815,327.35,0,417.12V544.081l89.815,89.77H215.009l50.443-50.416-27.408-27.417-39.084,39.065h-93.1l-67.1-67.06V433.186l67.1-67.069h93.1l39.67,39.66,27.408-27.426-51.029-51Z" transform="translate(256 607.782)"/><path class="b" d="M637.03,481.49V649.022H833.475V610.254H675.8v-90H833.475V481.49Z" transform="translate(193.304 592.612)"/><path class="c" d="M534.591,571.807h27.877l13.938-24.144-13.938-24.144H534.591l-13.938,24.144Zm50.263,38.768H512.2L475.88,547.662,512.2,484.75h72.649l36.316,62.912Z" transform="translate(209.164 592.291)"/><path class="c" d="M194.17,265.651V226.883H351.883V94.36h38.768V265.651Z" transform="translate(236.89 630.713)"/><path class="d" d="M575.461,208h27.877l13.938-24.144-13.938-24.144H575.461l-13.938,24.144Zm50.263,38.768H553.075L516.75,183.852l36.325-62.912h72.649l36.316,62.912Z" transform="translate(205.142 628.097)"/><path class="d" d="M195.18,565.912l23.45,30.87L344.2,501.35l80.187,105.512,30.87-23.459L351.6,447.03Z" transform="translate(236.79 596.003)"/><path class="e" d="M602.119,420.669h39.5l31.952-23.216,12.207-37.56-12.207-37.56-31.952-23.216h-39.5l-31.952,23.216-12.2,37.56,12.2,37.56Zm52.093,38.768h-64.7l-52.337-38.029L517.19,359.893l19.988-61.515,52.337-38.029h64.7l52.337,38.029,19.988,61.515-19.988,61.515Z" transform="translate(205.098 614.376)"/><rect class="e" width="38.768" height="308.259" transform="matrix(0.142, -0.99, 0.99, 0.142, 489.513, 704.94)"/><path class="a" d="M465.739,266.88h38.768V463.307H397.48V424.539h68.259Z" transform="translate(216.88 613.734)"/><rect class="e" width="196.779" height="38.768" transform="translate(342.66 896.364)"/><rect class="a" width="308.259" height="38.768" transform="translate(510.354 1202.865)"/><rect class="b" width="308.259" height="38.768" transform="matrix(0.5, -0.866, 0.866, 0.5, 554.549, 1023.644)"/></g></svg>