<svg xmlns="http://www.w3.org/2000/svg" width="16.138" height="17.363" viewBox="0 0 16.138 17.363"><defs><style>.a{fill:#fff;stroke:#fff;stroke-width:0.3px;}</style></defs><g transform="translate(0.152 0.173)"><path class="a" d="M21.714,11.22H31.1a1.937,1.937,0,0,0,1.933-1.933V5.294a.044.044,0,0,0,0-.021c0-.007,0-.018,0-.025s0-.014,0-.021a.222.222,0,0,1-.007-.025c0-.007,0-.014-.007-.021s0-.014-.007-.021a.171.171,0,0,1-.011-.025.077.077,0,0,0-.011-.018L32.973,5.1c0-.007-.007-.011-.011-.018s-.011-.014-.014-.021a.061.061,0,0,0-.014-.018c0-.007-.011-.011-.014-.018s-.01-.011-.014-.018S32.9,5,32.893,4.993l-.018-.018c-.007,0-.011-.011-.018-.014s-.014-.011-.021-.014l-.018-.011a.073.073,0,0,1-.021-.014l-.021-.011L32.756,4.9l-.021-.011c-.007,0-.014,0-.021-.007a.065.065,0,0,0-.025-.007.151.151,0,0,1-.018,0,.077.077,0,0,0-.028,0s-.007,0-.014,0l-11.9-1.643V1.565a.216.216,0,0,0,0-.049.026.026,0,0,0,0-.014c0-.011,0-.021,0-.032s0-.018-.007-.028,0-.011,0-.018L20.7,1.393s0-.011,0-.014a.1.1,0,0,0-.014-.028s0-.011-.007-.014a.073.073,0,0,0-.014-.021c0-.007-.007-.011-.011-.018s-.007-.011-.011-.018-.011-.014-.014-.021l-.011-.011-.021-.021-.011-.011a.152.152,0,0,0-.025-.021l-.014-.011c-.007-.007-.014-.011-.021-.018l-.028-.018s-.007,0-.011-.007l-.046-.021L17.858.038A.473.473,0,1,0,17.49.91l2.29.967v10.36a1.935,1.935,0,0,0,1.685,1.916,1.908,1.908,0,1,0,3.544.981,1.873,1.873,0,0,0-.263-.963H29a1.882,1.882,0,0,0-.263.963,1.909,1.909,0,1,0,1.909-1.909H21.714a.989.989,0,0,1-.988-.988V10.954A1.955,1.955,0,0,0,21.714,11.22Zm2.354,3.909a.963.963,0,1,1-.963-.963A.965.965,0,0,1,24.067,15.129Zm7.544,0a.963.963,0,1,1-.963-.963A.965.965,0,0,1,31.611,15.129ZM31.1,10.275h-9.39a.989.989,0,0,1-.988-.988V4.177L32.091,5.743V9.284A.989.989,0,0,1,31.1,10.275Z" transform="translate(-17.2 0)"/></g></svg>