<svg xmlns="http://www.w3.org/2000/svg" width="22.261" height="23.903" viewBox="0 0 22.261 23.903"><defs><style>.a{fill:#bfbfbf;stroke:#bfbfbf;stroke-width:0.3px;}</style></defs><g transform="translate(0.179 0.152)"><path class="a" d="M23.451,15.539h13a2.683,2.683,0,0,0,2.677-2.677V7.332a.062.062,0,0,0,0-.029c0-.01,0-.024,0-.034s0-.019,0-.029a.309.309,0,0,1-.01-.034c0-.01,0-.019-.01-.029s0-.019-.01-.029a.236.236,0,0,1-.015-.034.106.106,0,0,0-.015-.024l-.015-.029c0-.01-.01-.015-.015-.024s-.015-.019-.019-.029a.085.085,0,0,0-.019-.024c0-.01-.015-.015-.019-.024s-.015-.015-.019-.024-.015-.015-.019-.019l-.024-.024c-.01,0-.015-.015-.024-.019s-.019-.015-.029-.019l-.024-.015a.1.1,0,0,1-.029-.019L38.773,6.8l-.029-.015-.029-.015c-.01,0-.019,0-.029-.01a.09.09,0,0,0-.034-.01.21.21,0,0,1-.024,0,.107.107,0,0,0-.039,0s-.01,0-.019,0L22.088,4.466v-2.3a.3.3,0,0,0,0-.068.037.037,0,0,0,0-.019c0-.015,0-.029,0-.044s0-.024-.01-.039,0-.015,0-.024l-.015-.044s0-.015,0-.019a.145.145,0,0,0-.019-.039s0-.015-.01-.019a.1.1,0,0,0-.019-.029c0-.01-.01-.015-.015-.024s-.01-.015-.015-.024-.015-.019-.019-.029l-.015-.015L21.9,1.7l-.015-.015a.211.211,0,0,0-.034-.029s-.015-.01-.019-.015-.019-.015-.029-.024a.447.447,0,0,0-.039-.024s-.01,0-.015-.01l-.063-.029L18.111.052A.655.655,0,0,0,17.6,1.26L20.773,2.6V16.946A2.68,2.68,0,0,0,23.106,19.6a2.642,2.642,0,1,0,4.909,1.358,2.593,2.593,0,0,0-.364-1.334H33.54a2.606,2.606,0,0,0-.364,1.334,2.643,2.643,0,1,0,2.643-2.643H23.451a1.369,1.369,0,0,1-1.368-1.368V15.171A2.708,2.708,0,0,0,23.451,15.539Zm3.259,5.413a1.334,1.334,0,1,1-1.334-1.334A1.336,1.336,0,0,1,26.71,20.952Zm10.448,0a1.334,1.334,0,1,1-1.334-1.334A1.336,1.336,0,0,1,37.158,20.952Zm-.7-6.723h-13a1.369,1.369,0,0,1-1.368-1.368V5.785L37.822,7.953v4.9A1.37,1.37,0,0,1,36.455,14.23Z" transform="translate(-17.2 0)"/></g></svg>