<svg xmlns="http://www.w3.org/2000/svg" width="18.666" height="20.038" viewBox="0 0 18.666 20.038"><defs><style>.a{stroke:#000;stroke-width:0.3px;}</style></defs><g transform="translate(0.175 0.152)"><path class="a" d="M22.427,12.995H33.3a2.243,2.243,0,0,0,2.239-2.239V6.132a.051.051,0,0,0,0-.024c0-.008,0-.02,0-.028s0-.016,0-.024a.258.258,0,0,1-.008-.028c0-.008,0-.016-.008-.024s0-.016-.008-.024a.2.2,0,0,1-.012-.028.089.089,0,0,0-.012-.02L35.468,5.9c0-.008-.008-.012-.012-.02s-.012-.016-.016-.024a.071.071,0,0,0-.016-.02c0-.008-.012-.012-.016-.02s-.012-.012-.016-.02-.012-.012-.016-.016l-.02-.02c-.008,0-.012-.012-.02-.016s-.016-.012-.024-.016l-.02-.012a.085.085,0,0,1-.024-.016l-.024-.012-.024-.012-.024-.012c-.008,0-.016,0-.024-.008a.075.075,0,0,0-.028-.008.175.175,0,0,1-.02,0,.089.089,0,0,0-.032,0s-.008,0-.016,0l-13.783-1.9V1.812a.25.25,0,0,0,0-.057.031.031,0,0,0,0-.016c0-.012,0-.024,0-.037s0-.02-.008-.032,0-.012,0-.02l-.012-.037s0-.012,0-.016a.121.121,0,0,0-.016-.032s0-.012-.008-.016a.085.085,0,0,0-.016-.024c0-.008-.008-.012-.012-.02s-.008-.012-.012-.02-.012-.016-.016-.024l-.012-.012-.024-.024-.012-.012a.176.176,0,0,0-.028-.024s-.012-.008-.016-.012-.016-.012-.024-.02a.374.374,0,0,0-.032-.02s-.008,0-.012-.008L20.951,1.3,17.962.044a.548.548,0,0,0-.426,1.01l2.653,1.12v12a2.242,2.242,0,0,0,1.951,2.219,2.21,2.21,0,1,0,4.1,1.136,2.169,2.169,0,0,0-.3-1.115h4.924a2.18,2.18,0,0,0-.3,1.115,2.211,2.211,0,1,0,2.211-2.211H22.427a1.145,1.145,0,0,1-1.144-1.144V12.687A2.264,2.264,0,0,0,22.427,12.995Zm2.726,4.527a1.115,1.115,0,1,1-1.115-1.115A1.117,1.117,0,0,1,25.153,17.522Zm8.737,0a1.115,1.115,0,1,1-1.115-1.115A1.117,1.117,0,0,1,33.89,17.522ZM33.3,11.9H22.427a1.145,1.145,0,0,1-1.144-1.144V4.838L34.446,6.651v4.1A1.146,1.146,0,0,1,33.3,11.9Z" transform="translate(-17.2 0)"/></g></svg>